<?xml version="1.0" encoding="UTF-8" standalone="no"?>
<svg xmlns="http://www.w3.org/2000/svg" xmlns:xlink="http://www.w3.org/1999/xlink" version="1.1" viewBox="-20 -20 120 100" width="240" height="200">
	<path d="M 0 0 v 60 h 80 z" fill="none" stroke="black" stroke-width="1"/>
	<svg height="6.63017" version="1.1" viewBox="0 -6.63017 7.11653 6.63017" width="7.11653" x="-3.558265" y="-9.63017">
<defs>
<path d="M6.82441 0V-0.159402H6.66501C6.24658 -0.159402 5.99751 -0.368618 5.92777 -0.856787L5.15068 -6.64508H4.97136L1.42466 -0.896638C1.066 -0.318804 0.697385 -0.199253 0.348692 -0.159402V0H2.52055V-0.159402H2.23163C1.9726 -0.159402 1.8132 -0.268991 1.80324 -0.448319C1.80324 -0.518057 1.83313 -0.627646 1.90286 -0.707347L2.73973 -2.10212H4.71233L4.84184 -0.976339C4.85181 -0.9066 4.86177 -0.826899 4.86177 -0.767123C4.86177 -0.368618 4.70237 -0.159402 4.14446 -0.159402H3.98506V0H6.82441ZM4.64259 -2.47073H2.94894L4.33375 -4.73225H4.39352L4.64259 -2.47073Z" id="ltxsvg-1"/>
</defs>
<use xlink:href="#ltxsvg-1"/>
</svg>
	<svg height="6.63017" version="1.1" viewBox="0 -6.63017 7.30511 6.63017" width="7.30511" x="82.1213203435596" y="62.1213203435596">
<defs>
<path d="M1.9726 -6.5056L1.92279 -6.3462H2.11208C2.69988 -6.3462 2.88917 -6.1868 2.88917 -5.92777C2.88917 -5.868 2.8792 -5.76837 2.86924 -5.71856L1.64384 -0.787049C1.56413 -0.448319 1.37484 -0.159402 0.617684 -0.159402H0.418431L0.37858 0H3.60648C5.66874 0 6.48568 -0.936488 6.48568 -1.92279C6.48568 -2.76961 5.81818 -3.18804 5.22042 -3.29763L5.19054 -3.33748C5.38979 -3.3873 5.6787 -3.467 5.92777 -3.59651C6.40598 -3.83562 6.83437 -4.28394 6.83437 -5.06102C6.83437 -6.41594 5.32005 -6.5056 4.48319 -6.5056H1.9726ZM4.04483 -6.08717C4.17435 -6.1071 4.32379 -6.11706 4.47323 -6.11706C5.01121 -6.11706 5.65878 -5.90785 5.65878 -5.14072C5.65878 -4.17435 5.10087 -3.51681 3.98506 -3.51681C3.83562 -3.51681 3.65629 -3.53674 3.45704 -3.57659L4.04483 -6.08717ZM3.36737 -3.12827C3.51681 -3.16812 3.71606 -3.16812 3.87547 -3.16812C4.65255 -3.16812 5.29016 -2.81943 5.29016 -2.09215C5.29016 -0.797011 4.33375 -0.37858 3.39726 -0.37858C3.13823 -0.37858 2.93898 -0.398506 2.68991 -0.468244L3.36737 -3.12827Z" id="ltxsvg-2"/>
</defs>
<use xlink:href="#ltxsvg-2"/>
</svg>
	<svg height="6.73439" version="1.1" viewBox="0 -6.63017 7.45398 6.73439" width="7.45398" x="-3.72699" y="63">
<defs>
<path d="M7.08344 -6.56538H6.90411C6.75467 -6.31631 6.59527 -6.29639 6.48568 -6.29639C5.96762 -6.29639 5.44956 -6.56538 4.91158 -6.56538C2.50062 -6.56538 0.498132 -4.94147 0.498132 -2.65006C0.498132 -1.18555 1.44458 0.119552 3.36737 0.119552C3.75592 0.119552 4.51308 0.0597758 5.29016 -0.488169C5.57908 -0.697385 5.90785 -0.996264 6.17684 -1.40473L5.97758 -1.53425C5.92777 -1.46451 5.87796 -1.40473 5.80822 -1.33499C5.3599 -0.846824 4.63263 -0.358655 3.65629 -0.358655C2.31133 -0.358655 1.71357 -1.37484 1.71357 -2.49066C1.71357 -4.19427 2.88917 -6.19676 4.89166 -6.19676C6.09714 -6.19676 6.40598 -5.40971 6.40598 -4.76214C6.40598 -4.51308 6.40598 -4.42341 6.39601 -4.34371H6.55542L7.08344 -6.56538Z" id="ltxsvg-3"/>
</defs>
<use xlink:href="#ltxsvg-3"/>
</svg>
</svg>
