<?xml version="1.0" encoding="UTF-8"?>
<svg xmlns="http://www.w3.org/2000/svg" xmlns:xlink="http://www.w3.org/1999/xlink" height="60.381" version="1.1" viewBox="-0.938968 -13.8057 58.701 30.1905" width="117.402">
<defs>
<path d="M2.78954 0.0996264C2.46077 1.42466 2.20174 2.30137 1.55417 2.30137C1.46451 2.30137 1.40473 2.26152 1.40473 2.18182C1.42466 2.06227 1.63387 1.92279 1.63387 1.68369C1.63387 1.46451 1.44458 1.38481 1.25529 1.38481C0.86675 1.38481 0.557908 1.71357 0.557908 2.14197C0.557908 2.43088 0.767123 2.67995 1.27522 2.67995C2.66002 2.67995 3.42715 1.43462 3.87547 -0.368618L8.04981 -17.345C8.36862 -18.6401 8.65753 -19.5467 9.30511 -19.5467C9.39477 -19.5467 9.45455 -19.5068 9.45455 -19.4371C9.43462 -19.2976 9.2254 -19.198 9.2254 -18.929C9.2254 -18.7098 9.41469 -18.6301 9.60399 -18.6301C9.99253 -18.6301 10.3113 -18.9589 10.3113 -19.3773C10.3113 -19.6762 10.1021 -19.9253 9.58406 -19.9253C8.16936 -19.9253 7.39228 -18.5803 6.91407 -16.6376L2.78954 0.0996264Z" id="ltxsvg-1"/>
<path d="M5.68867 -11.6762C5.58904 -11.6862 5.49938 -11.6862 5.39975 -11.6862C3.7061 -11.6862 2.29141 -10.3113 2.29141 -8.56787C2.29141 -7.28269 3.08842 -6.15691 4.2142 -5.68867L2.78954 0.0996264C2.46077 1.42466 2.20174 2.30137 1.55417 2.30137C1.46451 2.30137 1.40473 2.26152 1.40473 2.18182C1.42466 2.06227 1.63387 1.92279 1.63387 1.68369C1.63387 1.46451 1.44458 1.38481 1.25529 1.38481C0.86675 1.38481 0.557908 1.71357 0.557908 2.14197C0.557908 2.43088 0.767123 2.67995 1.27522 2.67995C2.66002 2.67995 3.43711 1.43462 3.87547 -0.368618L5.1208 -5.45953C5.23039 -5.44956 5.34994 -5.44956 5.46949 -5.44956C7.13325 -5.44956 8.54795 -6.8543 8.54795 -8.56787C8.54795 -9.90286 7.73101 -10.9988 6.60523 -11.457L8.04981 -17.345C8.36862 -18.6401 8.65753 -19.5467 9.30511 -19.5467C9.39477 -19.5467 9.45455 -19.5068 9.45455 -19.4371C9.43462 -19.2976 9.2254 -19.198 9.2254 -18.929C9.2254 -18.7098 9.41469 -18.6301 9.60399 -18.6301C9.99253 -18.6301 10.3113 -18.9589 10.3113 -19.3773C10.3113 -19.6762 10.1021 -19.9253 9.58406 -19.9253C8.16936 -19.9253 7.39228 -18.5803 6.91407 -16.6376L5.68867 -11.6762ZM5.25031 -5.95766L6.48568 -10.9788C7.39228 -10.5704 8.04981 -9.64384 8.04981 -8.56787C8.04981 -7.0934 6.81445 -5.95766 5.36986 -5.95766H5.25031ZM5.56912 -11.198L4.33375 -6.17684C3.42715 -6.58531 2.78954 -7.51183 2.78954 -8.56787C2.78954 -10.0324 3.96513 -11.198 5.39975 -11.198H5.56912Z" id="ltxsvg-2"/>
<path d="M4.08717 -3.19801H2.24159C1.27024 -3.19801 0.298879 -2.38356 0.298879 -1.11333C0.298879 -0.575342 0.590286 0.0821918 1.3599 0.0821918C2.44334 0.0821918 3.27273 -0.747198 3.27273 -1.58406C3.27273 -2.14446 2.80946 -2.18182 2.64508 -2.65255H3.93773L4.08717 -3.19801ZM2.13699 -2.65255C2.38356 -2.50311 2.67497 -2.16687 2.67497 -1.68867C2.67497 -1.08344 2.12951 -0.141968 1.38979 -0.141968C0.986301 -0.141968 0.90411 -0.665006 0.90411 -0.90411C0.90411 -1.96513 1.62142 -2.60772 2.12204 -2.65255H2.13699Z" id="ltxsvg-3"/>
<path d="M3.47447 -3.17559C4.04981 -3.10834 4.34122 -2.89913 4.34122 -2.18182C4.34122 -1.53923 3.76588 -0.141968 3.10834 -0.141968C2.71233 -0.141968 2.58531 -0.515567 2.58531 -0.889166C2.8543 -1.27771 3.16812 -1.868 3.16812 -2.3462C3.16812 -2.533 3.06351 -2.69738 2.92154 -2.69738C2.38356 -2.69738 2.19676 -1.85305 2.19676 -1.3076C2.19676 -1.20299 2.20423 -1.03861 2.21918 -0.926526C2.12204 -0.582814 1.70361 -0.141968 1.27024 -0.141968C0.933998 -0.141968 0.762142 -0.493151 0.762142 -0.836862C0.762142 -2.09215 1.59153 -3.17559 2.51806 -3.17559L2.49564 -3.29514H2.37609C1.05355 -3.29514 0.14944 -2.33126 0.14944 -1.1208C0.14944 -0.60523 0.418431 0.0821918 1.18057 0.0821918C1.67372 0.0821918 2.02491 -0.209215 2.33126 -0.582814C2.36115 -0.201743 2.6675 0.0821918 3.10834 0.0821918C3.88543 0.0821918 4.93898 -0.821918 4.93898 -2.09215C4.93898 -2.97385 4.37858 -3.29514 3.5193 -3.29514L3.47447 -3.17559Z" id="ltxsvg-4"/>
<path d="M1.45704 -4.66999C1.64384 -4.72976 1.80822 -4.76712 2.00996 -4.76712C2.7721 -4.76712 2.98879 -4.07223 2.98879 -3.41469C2.98879 -3.23537 2.96638 -3.05604 2.93649 -2.89166C2.77958 -3.16812 2.45828 -3.25031 2.21918 -3.25031C1.12827 -3.25031 0.298879 -2.18182 0.298879 -1.12827C0.298879 -0.493151 0.582814 0.0821918 1.31507 0.0821918C3.06351 0.0821918 3.5193 -1.94271 3.5193 -3.04857C3.5193 -4.3188 3.05604 -4.99128 2.11457 -4.99128C1.86052 -4.99128 1.59153 -4.94645 1.38232 -4.81943L1.45704 -4.66999ZM2.74222 -2.38356C2.74222 -2.15193 2.69738 -1.89788 2.63014 -1.65131C2.42092 -0.889166 1.98007 -0.141968 1.40473 -0.141968C0.933998 -0.141968 0.90411 -0.590286 0.90411 -0.874222C0.90411 -1.91283 1.5467 -3.02615 2.28643 -3.02615C2.48817 -3.02615 2.74222 -2.86924 2.74222 -2.38356Z" id="ltxsvg-5"/>
<path d="M3.93773 -4.99128L2.7721 -4.81196L2.80199 -4.69988C2.8543 -4.70735 2.93649 -4.72229 3.00374 -4.72229C3.19801 -4.72229 3.25031 -4.66999 3.25031 -4.57285C3.25031 -4.54296 3.24284 -4.51308 3.23537 -4.48319L2.83935 -2.92154H2.82441C2.81694 -3.10087 2.64508 -3.29514 2.21918 -3.29514C1.06849 -3.29514 0.298879 -1.62889 0.298879 -0.859278C0.298879 -0.463263 0.410959 0.0896638 0.956413 0.0896638C1.23288 0.0896638 1.6812 0 2.23412 -0.694894H2.27148C2.21171 -0.470735 2.19676 -0.366127 2.19676 -0.216687C2.19676 -0.0821918 2.25654 0.0896638 2.49564 0.0896638C2.84682 0.0896638 3.24284 -0.358655 3.467 -0.694894L3.38481 -0.784558C3.2802 -0.627646 3.07098 -0.366127 2.92154 -0.366127C2.84682 -0.366127 2.80946 -0.388543 2.80946 -0.433375C2.80946 -0.455791 2.81694 -0.500623 2.82441 -0.523039L3.93773 -4.99128ZM2.71233 -2.54047C2.71233 -2.30884 2.67497 -2.01743 2.59278 -1.75592C2.38356 -1.06849 1.89041 -0.366127 1.36737 -0.366127C1.15816 -0.366127 0.948941 -0.493151 0.948941 -0.859278C0.948941 -1.57659 1.55417 -3.07098 2.2939 -3.07098C2.60025 -3.07098 2.71233 -2.89166 2.71233 -2.54047Z" id="ltxsvg-6"/>
<path d="M6.3462 -3.18804V-3.84558H0.478207V-3.18804H6.3462ZM6.3462 -1.19552V-1.85305H0.478207V-1.19552H6.3462Z" id="ltxsvg-7"/>
<use id="ltxsvg-8" transform="scale(1.33333)" xlink:href="#ltxsvg-4"/>
<use id="ltxsvg-9" transform="scale(1.33333)" xlink:href="#ltxsvg-6"/>
</defs>
<g id="ltxsvg-10">
<use xlink:href="#ltxsvg-2" y="6.11457"/>
<use x="-0.938968" xlink:href="#ltxsvg-5" y="15.31"/>
<use x="2.86605" xlink:href="#ltxsvg-3" y="15.31"/>
<use x="12.968" xlink:href="#ltxsvg-8"/>
<use x="22.4945" xlink:href="#ltxsvg-7"/>
<use x="32.0608" xlink:href="#ltxsvg-1" y="6.11457"/>
<use x="32.7818" xlink:href="#ltxsvg-3" y="14.802"/>
<use x="45.0288" xlink:href="#ltxsvg-9"/>
<use x="50.9068" xlink:href="#ltxsvg-8"/>
<rect height="30.1905" width="1.52018e-05" x="57.762" y="-13.8057"/>
</g>
</svg>
